# xmcd
#
# Track frame offsets: 
#        187
#        14907
#        26297
#        37502
#        50952
#        63667
#        76530
#        89077
#        101517
#        115055
#        126435
#        136515
#        146252
#        159172
#        168702
#        179530
#        190435
#        200597
#        210232
#        223232
#        234690
#        246945
#        259452
#        273435
#        293495
#        300470
#        314595
#
# Disc length: 4343 seconds
#
# Revision: 0
# Processed by: cddbd v1.5PL3 Copyright (c) Steve Scherf et al.
# Submitted via: ExactAudioCopy v0.95a2
#
DISCID=8d10f51b
DTITLE=The Dixie Hummingbirds - 1939-1976
DYEAR=1998
DGENRE=Gospel
TTITLE0=Joshua Journeyed TO Jericjo
TTITLE1=What A Time
TTITLE2=I'm Leaning On The Lord
TTITLE3=Moving Up That Shining Way
TTITLE4=Ill Keep On Living After I Die
TTITLE5=Let's Go Out To The Programs-no.1
TTITLE6=Wiil The Lord Be With Me
TTITLE7=Poor Pilgrim of Sorrow
TTITLE8=Nobody Knows The Trouble I See
TTITLE9=Have A Talk With Jesus
TTITLE10=Bedside Of A Neighbor
TTITLE11=Another Day
TTITLE12=My Prayer
TTITLE13=Let The Holy Ghost Fall On Me
TTITLE14=If Anybody Ask You
TTITLE15=You Don't Have Nothing
TTITLE16=The Reason I Shout
TTITLE17=What Are You Doing For Your Soul
TTITLE18=My New Home
TTITLE19=Going On
TTITLE20=Don't Let Me Fall
TTITLE21=Ye Shall Know The Truth
TTITLE22=Loves Me Like A Rock
TTITLE23=Jesus Children Of America
TTITLE24=Ezekiel Saw The Wheel
TTITLE25=We're Not Tired Yet
TTITLE26=Who Are We
EXTD=
EXTT0=
EXTT1=
EXTT2=
EXTT3=
EXTT4=
EXTT5=
EXTT6=
EXTT7=
EXTT8=
EXTT9=
EXTT10=
EXTT11=
EXTT12=
EXTT13=
EXTT14=
EXTT15=
EXTT16=
EXTT17=
EXTT18=
EXTT19=
EXTT20=
EXTT21=
EXTT22=
EXTT23=
EXTT24=
EXTT25=
EXTT26=
PLAYORDER=
